<svg xmlns="http://www.w3.org/2000/svg" viewBox="0 0 100 100">
   <!-- Main Body -->
  <path d="M30 90 C 20 50, 80 50, 70 90 Z" fill="#8FBC8F" stroke="#556B2F" stroke-width="2"/>
  <!-- Arm 1 -->
  <path d="M65 70 C 80 70, 85 55, 75 50 C 65 45, 60 55, 60 60" fill="#8FBC8F" stroke="#556B2F" stroke-width="2"/>
   <!-- Arm 2 -->
  <path d="M35 75 C 25 75, 20 65, 28 60 C 35 55, 40 60, 40 68" fill="#8FBC8F" stroke="#556B2F" stroke-width="2"/>
  <!-- Spines -->
   <g stroke="#556B2F" stroke-width="1.5">
    <line x1="35" y1="60" x2="32" y2="57"/> <line x1="65" y1="60" x2="68" y2="57"/>
    <line x1="50" y1="55" x2="50" y2="50"/> <line x1="40" y1="80" x2="37" y2="83"/>
    <line x1="60" y1="80" x2="63" y2="83"/> <line x1="75" y1="55" x2="78" y2="52"/>
    <line x1="80" y1="63" x2="83" y2="65"/> <line x1="28" y1="65" x2="25" y2="68"/>
     <line x1="32" y1="70" x2="29" y2="73"/>
  </g>
  <!-- Flower -->
  <circle cx="75" cy="48" r="8" fill="#FF69B4"/>
  <circle cx="75" cy="48" r="4" fill="#FFD700"/>
</svg>