<svg xmlns="http://www.w3.org/2000/svg" viewBox="0 0 100 100">
  <!-- Base -->
  <ellipse cx="50" cy="92" rx="15" ry="5" fill="#556B2F"/>
  <!-- Frond 1 (Center) -->
  <path d="M50 90 C 35 65, 70 40, 50 20" stroke="#006400" stroke-width="6" fill="none" />
  <g stroke="#2E8B57" stroke-width="4" fill="none">
    <path d="M50 70 Q 70 78 75 70" /> <path d="M50 70 Q 30 78 25 70" />
    <path d="M53 60 Q 75 68 80 60" /> <path d="M47 60 Q 25 68 20 60" />
    <path d="M55 50 Q 75 58 80 50" /> <path d="M45 50 Q 25 58 20 50" />
    <path d="M55 40 Q 70 45 75 40" /> <path d="M45 40 Q 30 45 25 40" />
    <path d="M50 30 Q 60 33 65 30" /> <path d="M50 30 Q 40 33 35 30" />
  </g>
  <!-- Frond 2 (Right) -->
  <path d="M60 90 C 70 75, 80 60, 70 45" stroke="#008000" stroke-width="4" fill="none" transform="rotate(20 60 90)"/>
   <g stroke="#6B8E23" stroke-width="3" fill="none" transform="rotate(20 60 90)">
     <path d="M68 75 Q 78 80 83 75" /> <path d="M62 75 Q 52 80 47 75" />
     <path d="M70 65 Q 80 70 85 65" /> <path d="M70 65 Q 60 70 55 65" />
     <path d="M70 55 Q 78 60 83 55" /> <path d="M70 55 Q 62 60 57 55" />
   </g>
   <!-- Frond 3 (Left) -->
   <path d="M40 90 C 30 75, 20 60, 30 45" stroke="#008000" stroke-width="4" fill="none" transform="rotate(-20 40 90)"/>
    <g stroke="#6B8E23" stroke-width="3" fill="none" transform="rotate(-20 40 90)">
     <path d="M32 75 Q 22 80 17 75" /> <path d="M38 75 Q 48 80 53 75" />
     <path d="M30 65 Q 20 70 15 65" /> <path d="M30 65 Q 40 70 45 65" />
     <path d="M30 55 Q 22 60 17 55" /> <path d="M30 55 Q 38 60 43 55" />
   </g>
</svg>