<svg xmlns="http://www.w3.org/2000/svg" viewBox="0 0 100 100">
  <!-- Frond 1 -->
  <path d="M50 90 C 40 70, 65 50, 55 30" stroke="#006400" stroke-width="5" fill="none" />
  <g stroke="#2E8B57" stroke-width="3" fill="none">
    <path d="M50 70 Q 65 75 70 70" /> <path d="M50 70 Q 35 75 30 70" />
    <path d="M53 60 Q 70 65 75 60" /> <path d="M47 60 Q 30 65 25 60" />
    <path d="M55 50 Q 70 55 75 50" /> <path d="M45 50 Q 30 55 25 50" />
     <path d="M55 40 Q 65 43 70 40" /> <path d="M45 40 Q 35 43 30 40" />
  </g>
   <!-- Frond 2 (smaller) -->
   <path d="M60 90 C 65 80, 70 70, 65 60" stroke="#556B2F" stroke-width="3" fill="none" transform="rotate(15 60 90)"/>
   <g stroke="#6B8E23" stroke-width="2" fill="none" transform="rotate(15 60 90)">
     <path d="M67 80 Q 72 82 75 80" /> <path d="M63 80 Q 58 82 55 80" />
     <path d="M65 70 Q 70 72 73 70" /> <path d="M65 70 Q 60 72 57 70" />
   </g>
</svg>